<svg xmlns="http://www.w3.org/2000/svg" version="1.1" xmlns:xlink="http://www.w3.org/1999/xlink" xmlns:svgjs="http://svgjs.dev/svgjs" width="1500" height="1500" viewBox="0 0 1500 1500"><rect width="1500" height="1500" fill="#ffffff"></rect><g transform="matrix(0.6666666666666666,0,0,0.6666666666666666,250.00017081513073,187.66666666666674)"><svg viewBox="0 0 320 360" data-background-color="#ffffff" preserveAspectRatio="xMidYMid meet" height="1687" width="1500" xmlns="http://www.w3.org/2000/svg" xmlns:xlink="http://www.w3.org/1999/xlink"><g id="tight-bounds" transform="matrix(1,0,0,1,0.00005466084189720277,0)"><svg viewBox="0 0 320 360" height="360" width="320"><g><svg></svg></g><g><svg viewBox="0 0 320 360" height="360" width="320"><g><path transform="translate(-119.39272,-98.31927) scale(5.58313,5.58313)" d="M36.7 23.5c0-0.2 0.1-0.4 0.3-0.4 0.2 0 0.4 0.1 0.4 0.4 0.1 0 0.3 0 0.4-0.1 0.4 0 0.8-0.1 1.1 0 0.3 0.1 0.5 0.1 0.8 0.2 0.3 0.1 0.5 0 0.7-0.1 0.4-0.1 0.7-0.3 1.1-0.4 0.2-0.1 0.3-0.1 0.5-0.1 0.2-0.1 0.4-0.1 0.7-0.2 0.5-0.1 1-0.2 1.4-0.4 0.4-0.2 0.8-0.2 1.2-0.3 0.2 0 0.3-0.1 0.5-0.2 0.1 0 0.1-0.1 0.2-0.2 0.2-0.1 0.3-0.2 0.5-0.1 0.1 0.1 0.3 0.1 0.4 0h0.1c0.6 0 1.2-0.1 1.9 0 0.1 0 0.2 0 0.2 0 0.3-0.2 0.7-0.2 1.1-0.2 0.1 0 0.3 0 0.4 0h0.1c0.4 0 0.8 0 1.1 0.1 0.3 0 0.5 0.1 0.8 0.2 0.3 0 0.5 0 0.8 0.1 0.2 0 0.4 0 0.6 0 0.1 0 0.2 0 0.2 0 0.4 0.1 0.8 0.1 1.2 0.1 0.3 0.1 0.6 0.2 1 0.2 0.1 0 0.2 0 0.3 0 0.1 0 0.2 0.1 0.3 0.1l0.1 0.1c0.4 0 0.7 0.2 1.1 0.2 0.1 0 0.3 0 0.4 0.1 0.3 0.2 0.7 0.3 1.1 0.3 0.2 0 0.3 0.1 0.4 0.2 0.3 0.1 0.5 0.2 0.8 0.3 0.2 0.1 0.4 0 0.6 0.1 0.3 0.1 0.7 0.2 1 0.5 0.2 0.2 0.4 0.2 0.7 0.4 0.1 0 0.2 0.1 0.3 0.2 0.3 0.2 0.6 0.4 0.9 0.5 0.1 0 0.2 0.1 0.3 0.1 0.3 0.2 0.6 0.5 1 0.7 0.2 0.1 0.3 0.2 0.5 0.3h0.1c0.3 0.3 0.7 0.5 1 0.8 0.3 0.3 0.5 0.5 0.9 0.7 0 0 0 0 0 0.1 0.1 0.2 0.2 0.3 0.4 0.4 0.2 0.1 0.3 0.2 0.4 0.3 0.3 0.2 0.6 0.4 0.8 0.6 0.1 0.1 0.2 0.2 0.4 0.4 0.1 0.1 0.2 0.2 0.3 0.2 0.4 0.1 0.6 0.4 0.9 0.7 0.2 0.2 0.5 0.5 0.7 0.7 0.1 0.1 0.2 0.3 0.3 0.5 0.2 0.6 0.5 1.2 0.8 1.7 0 0 0 0.1 0.1 0.2v0.1c0.2 0.2 0.3 0.5 0.5 0.7 0.1 0.1 0.1 0.2 0.2 0.3 0.2 0.3 0.3 0.7 0.5 1 0.3 0.5 0.5 1 0.7 1.5v0.1c0.1 0.2 0.2 0.4 0.3 0.7 0 0.2 0.2 0.4 0.3 0.7 0.1 0.5 0.4 1 0.5 1.6 0 0.1 0.1 0.2 0.1 0.4 0.1 0.3 0.2 0.6 0.3 0.9 0 0.1 0.1 0.2 0.2 0.3 0.2 0.2 0.2 0.4 0.2 0.6-0.1 0.4 0 0.8 0.1 1.2 0 0.1 0 0.2 0 0.4 0.1 0.4 0.2 0.9 0.2 1.3 0 0.1 0 0.3 0 0.4 0 0.3 0.1 0.6 0.3 0.9 0 0.1 0.1 0.1 0.1 0.1 0.1 0.1 0.2 0.3 0.3 0.4 0.1 0.1 0.1 0.1 0.2 0.2 0.2 0.2 0.3 0.4 0.3 0.7 0 0.1-0.1 0.3-0.1 0.4 0 0.1 0 0.3 0.1 0.4 0.1 0.1 0.1 0.2 0.1 0.3 0 0.1-0.1 0.2-0.2 0.2v0c-0.1 0.3-0.5 0.4-0.6 0.7-0.1 0.4-0.2 0.8-0.3 1.2-0.1 0.3-0.1 0.5-0.1 0.8 0 0.3-0.1 0.5-0.1 0.8-0.1 0.4-0.2 0.8-0.3 1.2 0 0.2-0.1 0.4-0.1 0.6 0.1 0.1 0.2 0.2 0.3 0.2 0.2 0.2 0.4 0.4 0.6 0.6 0.1 0.1 0.1 0.2 0 0.2-0.1 0.1-0.2 0.1-0.3 0.1-0.1-0.1-0.3-0.2-0.4-0.2-0.1-0.1-0.3-0.2-0.5-0.1 0 0.2-0.1 0.4-0.1 0.5-0.1 0.2-0.2 0.5-0.2 0.7-0.1 0.4-0.3 0.7-0.4 1.1-0.2 0.5-0.4 0.9-0.6 1.3-0.1 0.2-0.2 0.4-0.3 0.6v0c0 0.3-0.3 0.6-0.4 0.9-0.2 0.4-0.4 0.8-0.6 1.3-0.1 0.2-0.2 0.4-0.3 0.5-0.2 0.5-0.4 0.9-0.7 1.3-0.2 0.3-0.4 0.5-0.6 0.6-0.2 0.2-0.4 0.4-0.6 0.6-0.1 0.1-0.2 0.2-0.3 0.3-0.1 0.1-0.1 0.1-0.2 0.2-0.2 0.3-0.5 0.5-0.7 0.8-0.2 0.2-0.3 0.4-0.6 0.6-0.2 0.2-0.4 0.5-0.7 0.6-0.1 0.1-0.2 0.3-0.3 0.4-0.1 0.1-0.2 0.3-0.3 0.4 0 0.2 0.1 0.4 0.1 0.5 0 0.3-0.3 0.4-0.5 0.2-0.3-0.2-0.3-0.2-0.6 0-0.3 0.2-0.6 0.5-1 0.6-0.1 0-0.1 0.1-0.2 0.1-0.2 0.1-0.3 0.3-0.5 0.4-0.2 0.2-0.5 0.3-0.7 0.5-0.1 0.1-0.2 0.1-0.3 0.2-0.3 0.2-0.6 0.3-0.9 0.6-0.1 0.1-0.2 0.1-0.3 0.2 0 0.1 0 0.1 0 0.2 0 0.2-0.2 0.4-0.5 0.3-0.3-0.1-0.5 0-0.8 0-0.3 0.1-0.6 0.3-0.9 0.4-0.1 0-0.2 0.1-0.3 0.2-0.3 0.2-0.6 0.3-0.9 0.4-0.2 0-0.4 0.2-0.6 0.2-0.1 0-0.2 0.1-0.3 0.1h-0.1c-0.4 0.3-0.8 0.5-1.2 0.8-0.1 0-0.1 0.1-0.2 0.2-0.1 0.2-0.2 0.3-0.4 0.3-0.5 0-0.7 0.4-0.6 0.8 0 0.1 0.1 0.2 0.1 0.3 0.1 0.2 0 0.4-0.1 0.5-0.1 0.1-0.4 0.1-0.5-0.1-0.2-0.2-0.3-0.4-0.4-0.7-0.1-0.2-0.3-0.4-0.5-0.5-0.2-0.1-0.4-0.1-0.6 0-0.1 0-0.1 0.1-0.2 0.1-0.2 0.2-0.5 0.3-0.8 0.2-0.1 0-0.3 0-0.3 0.1-0.1 0.1-0.1 0.3 0 0.4 0.2 0.2 0.1 0.4 0.1 0.7 0 0.4-0.3 0.6-0.7 0.4-0.1-0.1-0.2-0.1-0.3-0.2-0.1 0-0.1-0.1-0.1-0.2-0.1-0.1-0.1-0.3-0.2-0.5-0.2 0.1-0.4 0.1-0.6 0.2-0.1 0-0.2 0.1-0.3 0.1-0.3 0-0.4 0-0.5-0.3-0.1-0.3-0.3-0.3-0.5-0.4-0.4-0.1-0.9-0.1-1.3-0.3h-0.1c-0.4-0.3-0.8-0.3-1.3-0.3-0.3 0-0.6 0.1-0.9 0.1-0.3 0-0.5 0.1-0.7 0.3-0.1 0.1-0.2 0.2-0.3 0.2-0.1-0.1-0.1-0.2-0.2-0.3v-0.1c0-0.1-0.1-0.2-0.2-0.1-0.2 0.1-0.4-0.1-0.6-0.2-0.1-0.1-0.3-0.3-0.3-0.5-0.1-0.1-0.2-0.2-0.3-0.2-0.2 0-0.5-0.1-0.7-0.1-0.1 0-0.2 0-0.2-0.1-0.1-0.1-0.2-0.1-0.4-0.1-0.1 0-0.1-0.1-0.2-0.1 0.2 0.2 0.3 0.4 0.4 0.6 0 0.1 0.1 0.1 0.1 0.2 0.1 0.2 0 0.3-0.3 0.3-0.2 0-0.2 0-0.3 0.1 0 0.2 0 0.3 0 0.5 0 0.1 0 0.2-0.2 0.3 0 0-0.1 0-0.1 0.1-0.1 0.1-0.1 0.2 0 0.3 0.3 0.2 0.5 0.3 0.8 0.4 0.3 0 0.3 0.2 0.4 0.4 0.1 0.2 0 0.3-0.1 0.5-0.2 0.2-0.4 0.4-0.6 0.6-0.3 0.1-0.5 0.4-0.8 0.4-0.2 0-0.4-0.1-0.5-0.3-0.1-0.5-0.1-0.9 0.1-1.4 0-0.1 0.1-0.2 0-0.3-0.9 0-0.9-0.2-0.9-0.3 0-0.2 0.1-0.3 0.1-0.5 0.1-0.2 0-0.3-0.3-0.4-0.1 0-0.2 0-0.3 0-0.1 0-0.1-0.1-0.3-0.1 0.2-0.1 0.3-0.1 0.5-0.2-0.1-0.4-0.2-0.7-0.5-0.9-0.1-0.1-0.2-0.2-0.2-0.4 0-0.3-0.2-0.5-0.3-0.7-0.2-0.3-0.6-0.4-0.9-0.4-0.3-0.1-0.5-0.1-0.8-0.2-0.3-0.1-0.6-0.4-0.9-0.5-0.1-0.1-0.2-0.2-0.4-0.3-0.4-0.2-0.7-0.5-1-0.8-0.2-0.1-0.3-0.3-0.5-0.4-0.2-0.2-0.3-0.4-0.5-0.5-0.2-0.2-0.4-0.4-0.7-0.6-0.3-0.2-0.5-0.5-0.8-0.8-0.2-0.3-0.5-0.5-0.8-0.7-0.1 0-0.2 0-0.3 0-0.1 0-0.2 0.1-0.3 0.1-0.3 0.1-0.5 0.3-0.8 0.4 0.1-0.1 0.1-0.1 0-0.3-0.1-0.1-0.2-0.2-0.3-0.2-0.2 0-0.4 0-0.6 0-0.4 0-0.8 0.1-1.2 0.1-0.3 0-0.7 0.1-1 0.2 0.1 0.2 0.1 0.3 0.2 0.5-0.2 0.1-0.4 0.1-0.6 0.1-0.1 0-0.3 0.1-0.4 0.2-0.1 0-0.1 0.1-0.2 0-0.2-0.1-0.4 0-0.6 0.1h-0.1c0 0 0-0.1 0.1-0.1 0.1-0.1 0.2-0.2 0.3-0.3 0.1-0.1 0.2-0.1 0.4-0.2-0.1-0.1-0.1-0.2-0.1-0.2-0.1-0.1-0.2-0.1-0.3 0-0.1 0.1-0.2 0.2-0.3 0.3-0.1 0.1-0.2 0.1-0.3 0-0.1-0.1-0.1-0.2 0-0.3 0-0.1 0.1-0.2 0.2-0.3 0.1-0.1 0.1-0.2 0.2-0.3-0.2-0.2-0.3-0.4-0.5-0.5-0.3-0.2-0.6-0.5-0.8-0.8-0.2-0.4-0.5-0.7-0.9-0.9-0.1-0.1-0.2-0.2-0.3-0.3-0.1-0.1-0.1-0.1-0.2-0.2-0.3 0.1-0.5 0.3-0.8 0.4-0.1 0-0.1 0.1-0.2 0.2-0.1 0.2-0.3 0.2-0.5 0.2-0.1 0-0.2-0.1-0.1-0.2 0.1-0.2 0.2-0.4 0.5-0.3 0 0 0.1 0 0.1-0.1 0.2-0.2 0.4-0.5 0.7-0.7-0.1-0.3-0.3-0.5-0.4-0.7-0.1-0.1-0.1-0.2-0.1-0.4 0-0.1 0-0.1-0.1-0.2 0 0-0.1 0-0.2 0.1-0.1 0.1-0.3 0.2-0.5 0 0-0.1 0-0.2 0.1-0.3l0.1-0.1c0.3-0.1 0.3-0.4 0.3-0.7v-0.1c-0.1-0.2-0.1-0.3 0.1-0.5 0.3-0.2 0.6-0.6 0.7-0.9 0.1-0.2 0.3-0.3 0.5-0.5 0.2-0.2 0.4-0.4 0.5-0.7h0.1c0.4 0.1 0.5-0.2 0.7-0.5 0-0.1 0-0.2 0.1-0.2 0.2-0.2 0.2-0.4 0.1-0.7 0-0.1-0.1-0.3-0.1-0.4 0-0.1 0-0.1-0.1-0.2-0.3-0.2-0.3-0.4 0-0.6 0.2-0.1 0.2-0.3 0.3-0.4 0.1-0.2 0.1-0.4 0.1-0.7-0.1-0.3-0.1-0.7-0.2-1-0.1-0.4-0.2-0.9-0.3-1.3 0-0.1 0-0.1 0-0.2 0-0.3 0-0.5-0.1-0.8-0.1-0.1-0.1-0.3-0.1-0.4-0.1-0.3-0.2-0.5-0.5-0.6-0.3-0.2-0.7-0.3-1-0.5-0.1-0.1-0.2 0-0.3 0.1-0.1 0.2-0.3 0.4-0.4 0.6-0.1 0.1-0.2 0.3-0.3 0.5-0.2 0.2-0.6 0.4-0.9 0.1-0.1-0.2-0.2-0.3 0-0.5 0.2-0.3 0.4-0.6 0.7-0.8 0.1-0.1 0.2-0.3 0.3-0.4 0.1-0.2 0.1-0.4 0.1-0.6-0.1-0.4-0.2-0.8-0.2-1.3 0-0.5 0-0.9 0.1-1.4 0.1-0.2 0.1-0.5 0.2-0.7 0-0.1 0.1-0.3 0.2-0.4 0.2-0.2 0.4-0.4 0.5-0.7 0.1-0.3 0.3-0.6 0.3-0.9 0-0.1 0.1-0.2 0.1-0.3 0-0.1 0.1-0.3 0.1-0.4-0.1-0.3 0-0.5 0.1-0.7 0.1-0.2 0.2-0.5 0.3-0.7 0.2-0.4 0.2-0.9 0.6-1.3 0.1-0.2 0.2-0.4 0.3-0.6 0.1-0.4 0.3-0.7 0.5-1 0.1-0.1 0.1-0.1 0.1-0.2 0.1-0.3 0.3-0.6 0.5-0.9 0.2-0.3 0.2-0.6 0.3-0.9 0-0.1 0-0.2 0.1-0.3 0.3-0.3 0.2-0.7 0.1-1.1-0.2-0.5-0.3-1-0.2-1.5 0-0.1 0-0.2 0.1-0.2 0.1-0.2 0.1-0.3 0.2-0.5v-0.1c0.2-0.2 0.4-0.5 0.7-0.6 0.4-0.2 0.8-0.3 1.3-0.4 0.4 0 0.8-0.2 1.1-0.6 0-0.1 0.1-0.1 0.2-0.2l0.1-0.1c0.1-0.2 0.2-0.3 0.3-0.4 0.2-0.2 0.4-0.5 0.6-0.7 0.2-0.2 0.4-0.5 0.7-0.8l0.1-0.1c0.2-0.2 0.4-0.4 0.6-0.5 0.2-0.2 0.4-0.4 0.6-0.6 0.2-0.2 0.3-0.4 0.5-0.6 0.2-0.1 0.4-0.3 0.6-0.5 0.2-0.2 0.4-0.4 0.5-0.5 0.2-0.2 0.5-0.4 0.7-0.5 0.2-0.1 0.4-0.2 0.5-0.5 0.1-0.3 0.2-0.5 0.3-0.8 0-0.2 0.1-0.4 0.2-0.6 0.1 0 0.2 0 0.4-0.1-0.1-0.1-0.2-0.1-0.2-0.2 0-0.1 0.1-0.2 0.1-0.2 0-0.1 0.1-0.2 0.1-0.3 0 0 0.1 0 0.1-0.1 0 0 0.1 0 0.1-0.1-0.2 0.1-0.3 0-0.4-0.1 0.1 0.1 0.2 0.1 0.4 0.2 0 0 0.1 0 0.1-0.1 0-0.1 0-0.2 0-0.2 0 0-0.1 0-0.2 0-0.1 0-0.2 0.1-0.3 0.1zM54 70.5c0-0.1-0.1-0.1-0.1-0.2-0.1-0.2 0-0.3 0.1-0.4 0.1-0.1 0.2-0.1 0.4-0.1 0.2 0.1 0.3 0.2 0.3 0.4 0 0.1 0 0.3 0 0.4 0.1 0.4 0.1 0.4 0.5 0.4 0.2 0 0.4 0 0.6 0 0.4-0.1 0.8-0.3 1.2-0.4 0.4-0.1 0.8-0.2 1.2-0.3 0.1 0 0.2 0 0.4 0 0.4 0.1 0.7 0 1-0.2 0.1-0.1 0.3-0.1 0.4-0.2 0.2-0.1 0.4-0.1 0.6-0.2 0.5-0.3 1-0.5 1.4-0.8 0.3-0.2 0.6-0.4 0.9-0.6 0.3-0.2 0.6-0.4 0.9-0.6 0.2-0.1 0.5-0.3 0.7-0.5 0.4-0.3 0.7-0.6 1.1-0.8 0.2-0.1 0.3-0.2 0.4-0.3 0.2-0.1 0.3-0.3 0.5-0.4 0.1-0.1 0.2-0.2 0.4-0.3 0.1-0.1 0.1-0.1 0.1-0.2 0.3-0.2 0.6-0.6 0.8-0.9 0.2-0.2 0.4-0.4 0.6-0.7 0.3-0.3 0.5-0.7 0.8-1.1 0.2-0.2 0.4-0.5 0.5-0.7 0.2-0.4 0.4-0.8 0.7-1.1v-0.1c0.2-0.4 0.4-0.8 0.6-1.2 0.3-0.5 0.5-1.1 0.8-1.6 0.1-0.2 0.2-0.4 0.2-0.6 0.2-0.4 0.3-0.8 0.4-1.2 0-0.1 0-0.1 0.1-0.2 0.3-0.6 0.5-1.2 0.6-1.9 0.1-0.4 0.2-0.8 0.3-1.2 0.2-0.6 0.2-1.1 0.3-1.7 0.1-0.4 0.1-0.9 0.1-1.3 0.1-0.6 0.1-1.3 0-1.9 0-0.5-0.1-1.1-0.1-1.6 0-0.5-0.1-0.9-0.2-1.4-0.1-0.5-0.2-0.9-0.3-1.4-0.2-0.4-0.3-0.8-0.4-1.3-0.1-0.4-0.3-0.7-0.3-1.1 0-0.3-0.1-0.6-0.4-0.7-0.3-0.1-0.5-0.2-0.8-0.4-0.6-0.4-0.9-0.9-0.8-1.5 0-0.3 0.1-0.7 0.2-1 0.1-0.3 0.2-0.6 0-0.8-0.1-0.3-0.3-0.5-0.4-0.7-0.2-0.3-0.3-0.5-0.5-0.7-0.2-0.4-0.4-0.8-0.7-1.1-0.4-0.5-0.7-1-1.2-1.4l-0.1-0.1c-0.3-0.4-0.6-0.8-1-1.1-0.2-0.2-0.4-0.4-0.6-0.5-0.1-0.1-0.2-0.2-0.4-0.3-0.3-0.2-0.6-0.3-0.8-0.5-0.3-0.3-0.7-0.5-1-0.7 0 0-0.1 0-0.1-0.1-0.4-0.2-0.7-0.3-1.1-0.5-0.4-0.2-0.8-0.3-1.2-0.3-0.1 0-0.1 0-0.2 0-0.1-0.1-0.3-0.1-0.4-0.1-0.1 0-0.1 0-0.2 0-0.2-0.1-0.5 0-0.7 0-0.4 0.1-0.8 0.1-1.2-0.1-0.5-0.2-0.9-0.4-1.3-0.6-0.3-0.2-0.5-0.4-0.8-0.6-0.6-0.5-1.2-1.1-1.9-1.6 0.1-0.5-0.1-0.6-0.5-0.6-0.2 0-0.4 0.1-0.6 0.2-0.1 0.1-0.1 0.1-0.2 0.2-0.3 0.2-0.5 0.5-0.8 0.7-0.5 0.3-0.7 0.2-1.1 0-0.1-0.1-0.2-0.2-0.3-0.3-0.2-0.2-0.4-0.5-0.5-0.7-0.2-0.4-0.6-0.4-1-0.4-0.2 0-0.5 0.1-0.7 0.1-0.4 0-0.8 0.2-1 0.5-0.2 0.3-0.4 0.6-0.7 0.9-0.1 0.1-0.3 0.2-0.4 0.4-0.2 0.2-0.4 0.2-0.6 0-0.1-0.1-0.2-0.1-0.3-0.2-0.1 0.1-0.2 0.2-0.2 0.3-0.1 0.2-0.2 0.4-0.3 0.7-0.1 0.3-0.3 0.6-0.5 0.8-0.1 0.1-0.1 0.1-0.2 0.2-0.1 0.2-0.4 0.3-0.6 0.3-0.2 0.2-0.4 0.5-0.5 0.7-0.1 0.2-0.2 0.4-0.3 0.7-0.1 0.1-0.1 0.3-0.2 0.4-0.1 0.2-0.1 0.3-0.1 0.5 0.1 0.3-0.1 0.4-0.4 0.5-0.2 0-0.2 0-0.3 0.2 0 0.3 0.1 0.5 0.2 0.8 0.1 0.1 0.2 0.3 0.2 0.4 0 0.2 0.1 0.3 0.3 0.4 0.1 0.1 0.2 0.2 0.3 0.2 0.1 0 0.1 0.1 0.2 0.1 0.1 0.1 0.2 0 0.2-0.1 0.1-0.3 0.2-0.6 0.2-0.9 0.1-0.4 0.1-0.7 0.2-1.1 0.1-0.2 0.2-0.3 0.3-0.4 0 0 0.1 0 0.2 0v0.1c-0.1 0.5-0.3 1.1-0.4 1.6-0.1 0.2-0.1 0.4-0.2 0.6 0 0.1-0.1 0.2-0.2 0.2-0.2 0.1-0.4 0.2-0.6 0.2-0.1 0-0.2 0-0.3 0-0.2-0.1-0.4-0.3-0.6-0.4-0.1-0.1-0.2-0.2-0.3-0.3-0.1-0.2-0.2-0.4-0.3-0.6-0.1-0.2-0.2-0.3-0.4-0.4-0.1-0.1-0.2-0.1-0.3-0.2-0.2-0.2-0.4-0.3-0.7-0.3-0.1 0-0.3 0-0.4 0-0.1 0-0.3 0.1-0.4 0.2-0.2 0.1-0.3 0.1-0.5 0-0.5-0.2-1-0.1-1.5 0.1-0.2 0.1-0.4 0.2-0.6 0.2-0.5 0-0.9 0-1.4 0-0.5 0-0.9-0.1-1.4-0.2-0.2 0-0.4 0-0.6 0-0.4 0.1-0.5 0.4-0.4 0.8 0.1 0.4 0.2 0.9 0.2 1.3 0 0.3 0 0.6 0 0.9 0 0.2 0 0.3 0 0.5 0 0.3-0.1 0.6-0.1 0.9-0.1 0.6-0.4 1.1-0.8 1.5-0.3 0.3-0.7 0.6-1.1 0.7-0.2 0.1-0.4 0.2-0.7 0.3-0.5 0.2-0.9 0.6-1.2 1.1-0.1 0.2-0.2 0.4-0.3 0.6-0.2 0.3-0.3 0.5-0.5 0.8-0.1 0.2-0.3 0.4-0.4 0.6-0.1 0.2-0.3 0.3-0.3 0.5-0.2 0.4-0.3 0.8-0.5 1.2-0.1 0.2-0.1 0.5-0.2 0.7-0.2 0.4-0.2 0.8-0.2 1.3 0 0.1 0 0.2 0 0.4 0 0.5-0.1 1.1-0.1 1.6 0 0.5 0 1 0.1 1.5 0 0.2 0 0.5 0 0.7 0 0.4 0.1 0.9 0.1 1.3 0 0.4 0 0.9 0.2 1.3v0.1c0.1 0.4 0.1 0.8 0.2 1.2 0 0.1 0 0.2 0.1 0.3 0.2 0.6 0.3 1.1 0.5 1.7 0.1 0.4 0.3 0.8 0.4 1.2 0.1 0.4 0.5 0.8 0.6 1.3v0c0.3 0.6 0.6 1.2 1 1.8 0.1 0.2 0.3 0.4 0.4 0.6 0.2 0.3 0.3 0.6 0.5 0.8 0.1 0.2 0.3 0.4 0.4 0.5 0.1 0.2 0.2 0.4 0.4 0.6 0.2 0.2 0.4 0.5 0.6 0.7 0.3 0.5 0.7 0.9 1.1 1.2 0.2 0.2 0.4 0.3 0.6 0.5 0.1 0.1 0.2 0.1 0.2 0.2 0.1 0.1 0.2 0.2 0.4 0.3 0.8 0.4 1.4 1 2.1 1.6 0.3 0.3 0.6 0.6 1 0.8 0.4 0.3 0.7 0.6 1.2 0.7 0 0 0.1 0 0.1 0.1 0.2 0.2 0.5 0.3 0.7 0.4 0.4 0.2 0.9 0.4 1.3 0.6 0.1 0.1 0.3 0.1 0.4 0.2 0.3 0.1 0.6 0.2 0.9 0.3 0.3 0.1 0.5 0.2 0.8 0.2h0.1c0.2 0.1 0.3 0.1 0.5 0 0.1 0 0.2 0 0.2 0.1 0 0.1 0.1 0.1 0.2 0.1 0.1 0 0.2 0 0.4 0 0.1-0.1 0.1-0.2 0.2-0.4 0.1 0.1 0.2 0.1 0.2 0.1 0.1 0.2 0.3 0.2 0.5 0.2h0.1c0.2 0 0.3 0 0.4-0.1 0-0.1 0.2-0.1 0.3-0.1 0.3 0.1 0.6 0.1 0.9 0.2 0.2 0.1 0.5 0.1 0.6-0.1 0.1-0.1 0.2-0.2 0.4-0.1 0.2 0.1 0.3 0.1 0.5 0 0.1 0 0.2 0 0.2 0 0.3 0.1 0.5 0.1 0.8 0.2 0.4 0.1 0.4 0.1 0.7-0.2 0.1-0.1 0.3-0.1 0.4 0 0.1 0.2 0.1 0.3 0.1 0.5 0.1 0 0.1 0 0.2-0.1 0-0.2 0.1-0.2 0.3-0.3 0.1 0.1 0.1 0.1 0.2 0.1 0.2 0.2 0.3 0.2 0.4-0.1 0-0.1 0-0.2 0.1-0.2 0.1 0 0.2 0.1 0.2 0.1 0.1 0.2 0.3 0.3 0.4 0.5 0.2 0.2 0.5 0.2 0.6 0 0.1-0.1 0.2-0.1 0.3-0.1 0-0.1 0-0.2 0-0.3 0.3 0.2 0.2 0.2 0.1 0.2zM37.4 23.8c0.3 0.1 0.5 0.1 0.6-0.1-0.2 0.1-0.4-0.1-0.6 0.1z" fill="#e09f05" fill-rule="nonzero" stroke="none" stroke-width="1" stroke-linecap="butt" stroke-linejoin="miter" stroke-miterlimit="10" stroke-dasharray="" stroke-dashoffset="0" font-family="none" font-weight="none" font-size="none" text-anchor="none" style="mix-blend-mode: normal" data-fill-palette-color="tertiary"></path></g><g transform="matrix(1,0,0,1,64,156.95998059854728)"><svg viewBox="0 0 192 46.08003880290546" height="46.08003880290546" width="192"><g><svg viewBox="0 0 192 46.08003880290546" height="46.08003880290546" width="192"><g><svg viewBox="0 0 270.3360750920979 64.88071265660956" height="46.08003880290546" width="192"><g transform="matrix(1,0,0,1,78.33607509209789,16.362626847353617)"><svg viewBox="0 0 192 32.155458961902326" height="32.155458961902326" width="192"><g id="textblocktransform"><svg viewBox="0 0 192 32.155458961902326" height="32.155458961902326" width="192" id="textblock"><g><svg viewBox="0 0 192 32.155458961902326" height="32.155458961902326" width="192"><g transform="matrix(1,0,0,1,0,0)"><svg width="192" viewBox="-8.3 -32 195.54000000000002 32.75" height="32.155458961902326" data-palette-color="#e09f05"><path d="M12.9-19.4L12.9-19.4-8.3-21.65 13.25-21.65Q13-20.65 12.9-19.4ZM-6.9-26.45L14.6-26.45 13.85-24.25-6.9-26.45ZM-7.85-16.85L12.9-16.85Q13-15.5 13.3-14.6L13.3-14.6-7.85-16.85ZM19.9-9.8L19.9-9.8-6.55-12.05 15-12.05Q16.65-10.45 19.9-9.8ZM-3.15-31.25L18.35-31.25Q17.2-30.5 16.15-29.2L16.15-29.2-3.15-31.25ZM10.55-5.05L-7.4-7.25 11.3-7.25 10.55-5.05ZM8.95-0.2L-8.25-2.4 9.7-2.4 8.95-0.2ZM10.65-0.55L13.45-8.8Q17.65-7.65 21.13-7.65 24.6-7.65 26.8-7.95L26.8-7.95 27.2-10.45 23.05-10.85Q18.3-11.3 16.32-13 14.35-14.7 14.35-17.8L14.35-17.8Q14.35-19.15 14.65-20.8L14.65-20.8Q15.8-27.2 18.85-29.6 21.9-32 28.23-32 34.55-32 39.4-30.75L39.4-30.75 36.8-22.75Q32.45-23.5 29.83-23.5 27.2-23.5 25.3-23.25L25.3-23.25 24.9-20.8 28.25-20.45Q33.35-19.9 35.5-18.03 37.65-16.15 37.65-13L37.65-13Q37.65-9.8 36.3-6.4L36.3-6.4Q35.55-4.65 34.73-3.48 33.9-2.3 32.63-1.48 31.35-0.65 30.3-0.23 29.25 0.2 27.6 0.4L27.6 0.4Q25.3 0.75 21.9 0.75L21.9 0.75Q15.7 0.75 10.65-0.55L10.65-0.55ZM61.45-4.95L59.5 0 49.5 0 62.65-31.25 77.35-31.25 79.55 0 69.5 0 69.3-4.95 61.45-4.95ZM64.55-12.9L68.55-12.9 68.55-21.65 68.05-21.65 64.55-12.9ZM48.85-2.4L47.9-0.2 27.4-2.4 48.85-2.4ZM50.9-7.25L49.95-5.05 29.45-7.25 50.9-7.25ZM52.9-12.05L52-9.85 31.5-12.05 52.9-12.05ZM54.95-16.85L54-14.65 33.55-16.85 54.95-16.85ZM56.95-21.65L56.05-19.45 35.6-21.65 56.95-21.65ZM61-31.25L60.1-29.1 39.7-31.25 61-31.25ZM58.95-26.45L58.05-24.3 37.65-26.45 58.95-26.45ZM39.7-31.25L60.1-29.1 61-31.25 39.7-31.25ZM98.15-31.25L113.55-31.25Q117.15-31.25 118.77-30 120.4-28.75 120.4-26.15L120.4-26.15Q120.4-22.35 118.72-19.9 117.05-17.45 114.65-16.85L114.65-16.85 114.6-16.55Q119.1-15.7 119.1-10.6L119.1-10.6Q119.1-6.1 116.65-3.05 114.2 0 109.75 0L109.75 0 92.65 0 98.15-31.25ZM108.05-12.45L108.05-12.45 104.3-12.45 103.4-7.35 107.1-7.35Q108.35-7.35 109-8.35 109.65-9.35 109.65-10.9 109.65-12.45 108.05-12.45ZM109.45-24.4L109.45-24.4 106.45-24.4 105.6-19.75 108.55-19.75Q110.85-19.75 110.85-23L110.85-23Q110.85-24.4 109.45-24.4ZM91.55-2.4L91.15-0.15 69.95-2.4 91.55-2.4ZM93.25-12.05L92.85-9.8 71.65-12.05 93.25-12.05ZM94.1-16.85L93.7-14.6 72.5-16.85 94.1-16.85ZM94.95-21.65L94.55-19.4 73.35-21.65 94.95-21.65ZM95.75-26.45L95.4-24.2 74.2-26.45 95.75-26.45ZM92.4-7.25L92-5 70.8-7.25 92.4-7.25ZM96.6-31.25L96.2-29 75.05-31.25 96.6-31.25ZM140.84 0L131.34 0 136.84-31.25 146.34-31.25 140.84 0ZM130.24-2.4L129.84-0.15 108.64-2.4 130.24-2.4ZM131.94-12.05L131.54-9.8 110.34-12.05 131.94-12.05ZM132.79-16.85L132.39-14.6 111.19-16.85 132.79-16.85ZM133.64-21.65L133.24-19.4 112.04-21.65 133.64-21.65ZM134.44-26.45L134.09-24.2 112.89-26.45 134.44-26.45ZM131.09-7.25L130.69-5 109.49-7.25 131.09-7.25ZM135.29-31.25L134.89-29 113.74-31.25 135.29-31.25ZM162.04-31.25L175.34-31.25Q181.79-31.25 184.52-28.98 187.24-26.7 187.24-21.6L187.24-21.6Q187.24-19 186.64-15.6L186.64-15.6Q185.14-7.2 181.52-3.6 177.89 0 169.84 0L169.84 0 156.54 0 162.04-31.25ZM174.04-23.25L174.04-23.25 170.09-23.25 167.44-8 171.39-8Q173.34-8 174.29-8.47 175.24-8.95 175.54-10.65L175.54-10.65 177.29-20.6Q177.34-20.9 177.34-21.4L177.34-21.4Q177.34-22.55 176.54-22.9 175.74-23.25 174.04-23.25ZM155.44-2.4L155.04-0.15 133.84-2.4 155.44-2.4ZM157.14-12.05L156.74-9.8 135.54-12.05 157.14-12.05ZM157.99-16.85L157.59-14.6 136.39-16.85 157.99-16.85ZM158.84-21.65L158.44-19.4 137.24-21.65 158.84-21.65ZM159.64-26.45L159.29-24.2 138.09-26.45 159.64-26.45ZM156.29-7.25L155.89-5 134.69-7.25 156.29-7.25ZM160.49-31.25L160.09-29 138.94-31.25 160.49-31.25Z" opacity="1" transform="matrix(1,0,0,1,0,0)" fill="#e09f05" class="wordmark-text-0" data-fill-palette-color="primary" id="text-0"></path></svg></g></svg></g></svg></g></svg></g><g><svg viewBox="0 0 73.64382189854125 64.88071265660956" height="64.88071265660956" width="73.64382189854125"><g><svg xmlns="http://www.w3.org/2000/svg" xmlns:xlink="http://www.w3.org/1999/xlink" version="1.1" x="0" y="0" viewBox="6.3 11.5 87.4 77" style="enable-background:new 0 0 100 100;" xml:space="preserve" height="64.88071265660956" width="73.64382189854125" class="icon-icon-0" data-fill-palette-color="accent" id="icon-0"><path d="M72.3 12.3L72.3 12.3 72.3 12.3l-0.4-0.8H28.2L6.3 50l21.8 38.5h43.7L93.7 50 72.3 12.3zM33.3 25.3L9.9 47.7l18.6-32.8L33.3 25.3zM70.7 14.8l6.4 35.7L36.9 25.8 70.7 14.8zM35.5 27.3l41 25.2-41 23.3V27.3zM77 54.5l-7.2 30.8-32.6-8.1L77 54.5zM33.5 75L9.9 50.5l23.6-22.7V75zM33.2 77.6l-4.6 7.7L11.5 55.1 33.2 77.6zM35 78.6l31.4 7.9H30.2L35 78.6zM79.3 53.3l11.6-2.5L72.1 84 79.3 53.3zM90.7 48.9l-11.4 2.5-5.9-33.1L90.7 48.9zM35 24.3l-5-10.8h38.2L35 24.3z" fill="#e09f05" data-fill-palette-color="accent"></path></svg></g></svg></g></svg></g></svg></g></svg></g></svg></g><defs></defs></svg><rect width="320" height="360" fill="none" stroke="none" visibility="hidden"></rect></g></svg></g></svg>